# xmcd CD database file generated by Grip 2.95
# 
# Track frame offsets:
#       150
#       13368
#       30025
#       46513
#       64695
#       79450
#       89408
#       102543
#       113515
#       130063
#       141583
#       152533
#       165985
#       186025
#       200578
#       214245
# 
# Disc length: 3022 seconds
# 
# Revision: 3
# Processed by: cddbd v1.4b42PL1 Copyright (c) Steve Scherf et al.
# Submitted via: Grip 2.95
# 
DISCID=d20bcc10
DTITLE=John Lee Hooker - Moanin' the blues
DYEAR=1900
DGENRE=
TTITLE0=Drive me away
TTITLE1=Wrong doing woman
TTITLE2=She left me one wednesday
TTITLE3=Track 4sally mae
TTITLE4=moanin' blus
TTITLE5=Stop talking
TTITLE6=I see you when you're weak
TTITLE7=Little fine woman
TTITLE8=Mama, you got a daughter
TTITLE9=Wheel and deal
TTITLE10=Tennessee blues
TTITLE11=Baby Lee
TTITLE12=Nightmare
TTITLE13=Love me all the time
TTITLE14=You're gonna miss me when i'm gone
TTITLE15=Mambo Chillun
EXTD=
EXTT0=
EXTT1=
EXTT2=
EXTT3=
EXTT4=
EXTT5=
EXTT6=
EXTT7=
EXTT8=
EXTT9=
EXTT10=
EXTT11=
EXTT12=
EXTT13=
EXTT14=
EXTT15=
PLAYORDER=
